<svg width="256" height="256" viewBox="0 0 256 256" fill="none" xmlns="http://www.w3.org/2000/svg">
<rect x="2.5" y="2.5" width="251" height="251" stroke="white" stroke-width="5"/>
<path d="M142.031 222.529C137.283 226.613 131.964 229.747 126.076 231.932C120.188 234.116 114.086 235.208 107.77 235.208C102.926 235.208 98.249 234.567 93.7378 233.285C89.2741 232.05 85.0715 230.293 81.1301 228.014C77.2362 225.687 73.6748 222.909 70.4457 219.68C67.2166 216.451 64.4387 212.89 62.1118 208.996C59.8325 205.054 58.0517 200.852 56.7696 196.388C55.535 191.877 54.9176 187.199 54.9176 182.356C54.9176 177.512 55.535 172.835 56.7696 168.323C58.0517 163.812 59.8325 159.61 62.1118 155.716C64.4387 151.774 67.2166 148.189 70.4457 144.96C73.6748 141.731 77.2362 138.977 81.1301 136.698C85.0715 134.371 89.2741 132.59 93.7378 131.355C98.249 130.073 102.926 129.432 107.77 129.432C114.086 129.432 120.188 130.524 126.076 132.709C131.964 134.846 137.283 137.98 142.031 142.111L131.205 159.918C128.213 156.689 124.675 154.22 120.591 152.511C116.508 150.754 112.234 149.875 107.77 149.875C103.259 149.875 99.0325 150.73 95.0911 152.439C91.1498 154.149 87.707 156.476 84.7628 159.42C81.8187 162.316 79.4919 165.759 77.7823 169.748C76.0728 173.689 75.2181 177.892 75.2181 182.356C75.2181 186.819 76.0728 191.022 77.7823 194.963C79.4919 198.857 81.8187 202.276 84.7628 205.22C87.707 208.165 91.1498 210.491 95.0911 212.201C99.0325 213.91 103.259 214.765 107.77 214.765C112.234 214.765 116.508 213.91 120.591 212.201C124.675 210.444 128.213 207.951 131.205 204.722L142.031 222.529ZM232.208 222.672C227.46 226.708 222.165 229.818 216.324 232.003C210.483 234.14 204.405 235.208 198.089 235.208C193.246 235.208 188.568 234.567 184.057 233.285C179.593 232.05 175.414 230.293 171.521 228.014C167.627 225.687 164.065 222.933 160.836 219.751C157.607 216.522 154.853 212.961 152.573 209.067C150.294 205.125 148.513 200.899 147.231 196.388C145.997 191.877 145.379 187.199 145.379 182.356C145.379 177.512 145.997 172.858 147.231 168.395C148.513 163.931 150.294 159.752 152.573 155.858C154.853 151.917 157.607 148.355 160.836 145.174C164.065 141.945 167.627 139.191 171.521 136.911C175.414 134.632 179.593 132.875 184.057 131.64C188.568 130.358 193.246 129.717 198.089 129.717C204.405 129.717 210.483 130.809 216.324 132.994C222.165 135.13 227.46 138.217 232.208 142.253L221.524 160.061C218.437 156.927 214.876 154.481 210.839 152.724C206.803 150.92 202.553 150.017 198.089 150.017C193.625 150.017 189.423 150.872 185.482 152.582C181.588 154.291 178.169 156.618 175.224 159.562C172.28 162.459 169.953 165.878 168.244 169.819C166.534 173.713 165.68 177.892 165.68 182.356C165.68 186.867 166.534 191.093 168.244 195.035C169.953 198.976 172.28 202.419 175.224 205.363C178.169 208.307 181.588 210.634 185.482 212.343C189.423 214.053 193.625 214.908 198.089 214.908C200.653 214.908 203.146 214.599 205.568 213.982C207.99 213.364 210.293 212.51 212.478 211.417V182.356H232.208V222.672Z" fill="white"/>
</svg>
